<svg width="364" height="59" viewBox="0 0 364 59" fill="none" xmlns="http://www.w3.org/2000/svg">
<path d="M29.1807 0.00109863C30.4586 -0.00745757 31.6287 0.0340516 32.3906 0.115356C33.0498 0.184703 34.0323 0.320252 34.5742 0.416138C35.1161 0.512877 36.0209 0.706524 36.5859 0.847778C37.151 0.989039 37.8634 1.18475 38.1699 1.28235C38.4764 1.37995 39.1113 1.5947 39.582 1.75989C40.0529 1.92598 40.9595 2.29158 41.5947 2.57239C42.2299 2.85404 43.1735 3.31665 43.6914 3.60168C44.2094 3.88592 45.1728 4.47561 45.832 4.91223C46.4912 5.34883 47.4452 6.03658 47.9512 6.44153C48.457 6.84551 49.3392 7.62971 49.9111 8.18274C50.4829 8.7357 51.2787 9.55427 51.6777 10.0021C52.0775 10.4498 52.7358 11.2589 53.1416 11.7999C53.5474 12.341 54.1818 13.2657 54.5508 13.8546C54.9206 14.4437 55.5376 15.5616 55.9229 16.338C56.309 17.1145 56.8102 18.2513 57.0371 18.8634C57.264 19.4755 57.5767 20.42 57.7334 20.9611C57.8892 21.5022 58.1333 22.5433 58.2754 23.2726C58.4175 24.0019 58.6015 25.2155 58.6846 25.9689C58.789 26.9089 58.8372 28.0252 58.8389 29.5226C58.8414 31.1669 58.8051 31.9691 58.6904 32.7755C58.6065 33.3645 58.4391 34.328 58.3184 34.9161C58.1985 35.5052 57.9331 36.5636 57.7285 37.2697C57.5248 37.976 57.1662 39.055 56.9316 39.6671C56.6971 40.2792 56.3137 41.2038 56.0791 41.7218C55.8454 42.2398 55.4128 43.1066 55.1191 43.6486C54.8246 44.1905 54.3054 45.0565 53.9639 45.5743C53.6232 46.0922 53.0679 46.8624 52.7314 47.2863C52.395 47.71 51.7831 48.4225 51.373 48.8702C50.9621 49.318 50.1835 50.0975 49.6416 50.6027C49.0997 51.1086 48.2716 51.8236 47.8008 52.1925C47.3299 52.5615 46.5397 53.1345 46.0459 53.464C45.5519 53.7944 44.8006 54.2686 44.377 54.5177C43.9532 54.7668 43.1441 55.202 42.5791 55.4845C42.0142 55.7669 41.1094 56.1798 40.5674 56.4025C40.0255 56.6251 39.043 56.9835 38.3838 57.1984C37.7246 57.4132 36.7034 57.7058 36.1152 57.8488C35.5262 57.9917 34.6982 58.1673 34.2744 58.2384C33.8506 58.3103 33.0027 58.4331 32.3906 58.5118C31.7066 58.5991 30.6511 58.6547 29.6514 58.6564C28.6266 58.6581 27.5657 58.6041 26.7832 58.5099C26.1001 58.4286 25.0987 58.2861 24.5576 58.1945C24.0166 58.102 23.0911 57.9082 22.5029 57.7618C21.9139 57.6146 20.8349 57.2901 20.1055 57.0402C19.376 56.791 18.1805 56.3217 17.4512 55.9982C16.7218 55.6737 15.7195 55.1834 15.2256 54.9103C14.7316 54.6363 13.8828 54.1334 13.3418 53.7902C12.8007 53.4477 12.0107 52.9076 11.5869 52.59C11.1631 52.2723 10.4344 51.6814 9.96777 51.2765C9.50118 50.8715 8.75679 50.1545 8.3125 49.6837C7.86816 49.2128 7.06984 48.2494 6.53906 47.5431C6.00744 46.8368 5.28319 45.8353 4.92969 45.3175C4.57616 44.7996 4.06643 44.0104 3.7959 43.5626C3.52628 43.115 3.15031 42.4413 2.96191 42.0646C2.77359 41.6879 2.45424 40.9746 2.25391 40.4806C2.05276 39.9867 1.73304 39.1009 1.54297 38.5118C1.35293 37.9238 1.08146 36.9793 0.938477 36.4142C0.796391 35.8493 0.601767 34.9444 0.505859 34.4025C0.41 33.8607 0.272982 32.9368 0.200195 32.3478C0.127429 31.7597 0.042905 30.5641 0.0146484 29.6935C-0.0170233 28.7271 0.00283452 27.6424 0.0644531 26.9113C0.120101 26.252 0.24274 25.2307 0.336914 24.6417C0.43025 24.0536 0.603687 23.1478 0.722656 22.63C0.840812 22.112 1.05541 21.2831 1.19922 20.7892C1.3422 20.2952 1.6136 19.4671 1.80273 18.9493C1.99275 18.4315 2.32222 17.6224 2.53711 17.1515C2.75111 16.6807 3.15548 15.8716 3.43457 15.3536C3.71452 14.8357 4.30287 13.8722 4.74121 13.213C5.18041 12.5538 5.87974 11.5903 6.29492 11.0724C6.71025 10.5543 7.60796 9.55674 8.29102 8.85657C8.97323 8.15639 9.97551 7.21161 10.5166 6.75696C11.0576 6.30328 11.8865 5.65608 12.3574 5.32043C12.8282 4.98401 13.6373 4.45215 14.1553 4.13879C14.6732 3.82545 15.6367 3.30323 16.2959 2.97961C16.9551 2.65601 17.9953 2.19492 18.6074 1.9552C19.2196 1.71463 20.2986 1.34927 21.0049 1.14465C21.7112 0.9392 22.7515 0.674885 23.3164 0.556763C23.8815 0.439481 24.8252 0.281622 25.4141 0.207153C26.0021 0.132694 26.6379 0.0593543 26.8262 0.0430908C27.0145 0.0276806 28.0737 0.00880376 29.1807 0.00109863ZM35.2295 37.7228C34.3751 38.4496 32.7123 39.8177 31.5352 40.7628C30.358 41.7088 28.9711 42.7985 28.4531 43.1837C27.9351 43.569 26.9716 44.2365 26.3125 44.6671C25.6532 45.0978 24.4017 45.8112 23.5303 46.2521C22.6588 46.693 21.3882 47.2666 20.7051 47.5294C20.0219 47.7914 18.9437 48.1382 18.3076 48.3009C17.6716 48.4635 16.8056 48.6439 16.3818 48.7013C15.8751 48.7698 15.025 48.7897 13.8994 48.7589C12.6341 48.7247 11.9966 48.6682 11.459 48.5441C11.0583 48.4508 10.5865 48.3128 10.4102 48.2374C10.2305 48.1605 10.0889 48.1377 10.0889 48.1857C10.089 48.2329 10.484 48.6351 10.9668 49.0802C11.4497 49.5254 12.1915 50.1679 12.6152 50.507C13.039 50.8459 13.7705 51.3803 14.2412 51.6945C14.7121 52.0087 15.4444 52.4707 15.8682 52.7198C16.292 52.9681 16.9854 53.3454 17.4092 53.5577C17.833 53.7692 18.642 54.1323 19.207 54.3634C19.7721 54.5954 20.7157 54.9402 21.3047 55.132C21.8927 55.3228 22.8553 55.5893 23.4443 55.7238C24.0325 55.8573 24.9201 56.026 25.4141 56.0988C25.9081 56.1707 26.8137 56.2742 27.4258 56.3273C28.0799 56.3846 29.1743 56.4041 30.0801 56.3741C30.9276 56.3467 32.0636 56.2644 32.6055 56.1925C33.1473 56.1206 33.9176 56.0025 34.3174 55.9288C34.7171 55.8561 35.6228 55.6483 36.3291 55.4659C37.0354 55.2836 38.1144 54.9554 38.7266 54.7345C39.3387 54.5136 40.4177 54.0548 41.124 53.715C41.8303 53.3751 42.8127 52.8529 43.3066 52.5558C43.8005 52.2588 44.5139 51.8024 44.8906 51.5421C45.2673 51.2819 46.0375 50.6983 46.6025 50.2472C47.1676 49.796 48.112 48.9456 48.7002 48.3566C49.2891 47.7685 50.1572 46.806 50.6299 46.2169C51.1016 45.6288 51.7829 44.7042 52.1416 44.1622C52.5003 43.6204 53.0051 42.7923 53.2637 42.3214C53.5222 41.8507 53.9159 41.0614 54.1377 40.5665C54.3594 40.0727 54.614 39.4844 54.7031 39.2609C54.7922 39.0374 54.942 38.6613 55.0361 38.4259L55.207 37.9982C54.5105 38.4448 54.0584 38.7005 53.752 38.8546C53.4455 39.0087 52.8676 39.248 52.4678 39.3859C52.068 39.5228 51.2968 39.7327 50.7549 39.8517C49.9794 40.0211 49.4346 40.0775 48.1865 40.1134C47.1841 40.1434 46.2734 40.1217 45.7041 40.0558C45.2101 39.9984 44.3812 39.8451 43.8633 39.715C43.3454 39.5848 42.3638 39.2568 41.6807 38.9855C40.9975 38.7141 39.996 38.2671 39.4541 37.9923C38.9123 37.7175 38.091 37.2478 37.627 36.9474L36.7832 36.4015L35.2295 37.7228ZM15.9111 22.7999C14.8998 22.7845 13.9746 22.7892 13.8564 22.8097C13.7392 22.8311 13.2569 22.9081 12.7861 22.9825C12.3153 23.057 11.5062 23.2468 10.9883 23.4034C10.4703 23.5601 9.71903 23.829 9.31836 24.0011C8.91765 24.1724 8.24398 24.5177 7.82031 24.7667C7.39652 25.0159 6.74184 25.4618 6.36523 25.7579C5.98854 26.0542 5.39422 26.5894 5.04492 26.9464C4.69561 27.3035 4.14241 27.9426 3.81543 28.3663C3.48929 28.7901 3.01028 29.4836 2.75 29.9073L2.27832 30.6779C2.42985 32.1375 2.55267 33.0438 2.64941 33.632C2.74531 34.2209 2.94081 35.1637 3.08203 35.7286C3.22329 36.2937 3.47661 37.1804 3.64355 37.6984C3.81137 38.2163 4.11817 39.0453 4.32617 39.5392C4.53337 40.034 4.90691 40.8233 5.1543 41.2941C5.40173 41.7649 5.83335 42.5152 6.11328 42.962C6.55661 43.6689 6.71531 43.842 7.34961 44.3068C7.75028 44.6004 8.38603 45.0099 8.7627 45.2179C9.13942 45.4259 9.79406 45.7337 10.2178 45.9015C10.6415 46.0693 11.3928 46.2923 11.8867 46.3976C12.6144 46.5517 13.0625 46.588 14.2412 46.588C15.2343 46.588 15.9421 46.543 16.4678 46.4454C16.8916 46.3675 17.5851 46.2098 18.0088 46.0968C18.4326 45.9838 19.164 45.747 19.6348 45.5724C20.1056 45.3977 21.0691 44.9722 21.7754 44.6281C22.4817 44.283 23.5219 43.7261 24.0869 43.3888C24.652 43.0523 25.48 42.5206 25.9277 42.2081C26.3755 41.8965 27.2803 41.2384 27.9395 40.7462C28.5987 40.2548 29.6198 39.465 30.208 38.9933C30.797 38.5216 32.1063 37.445 33.1191 36.6017L34.96 35.0675C33.6989 34.0419 32.9276 33.3857 32.4336 32.9474C31.9393 32.5097 30.5715 31.242 29.3945 30.131C28.2174 29.019 27.004 27.8749 26.6982 27.588C26.3926 27.3012 25.8147 26.7859 25.4141 26.4435C25.0134 26.1002 24.2811 25.5529 23.7871 25.2267C23.2932 24.9006 22.5031 24.4465 22.0322 24.2179C21.5614 23.9893 20.7713 23.6616 20.2773 23.4904C19.7834 23.3191 19.0122 23.1008 18.5645 23.004C17.9208 22.8654 17.3678 22.8222 15.9111 22.7999ZM56.4482 26.7814C54.9223 26.7968 54.1519 26.8492 53.752 26.9073C53.3521 26.9656 52.7156 27.08 52.3389 27.1622C51.9622 27.2453 51.1721 27.4683 50.584 27.6583C49.9951 27.8483 49.1093 28.1762 48.6152 28.3868C48.1213 28.5983 47.408 28.9249 47.0312 29.1124C46.6546 29.2999 45.7678 29.7966 45.0615 30.2169C44.3552 30.6373 43.3081 31.3177 42.7354 31.7286C42.1625 32.1397 41.0161 33.0054 40.1885 33.6525C39.3606 34.2997 38.6836 34.8691 38.6836 34.9161C38.6858 34.9644 39.0611 35.2234 39.5186 35.4923C39.9775 35.762 40.8358 36.183 41.4238 36.4279C42.0128 36.6735 42.9556 37.0134 43.5205 37.1837C44.0856 37.3549 44.9913 37.5735 45.5332 37.672C46.2599 37.8029 46.8984 37.8524 47.9727 37.8575C49.0214 37.8627 49.6323 37.8243 50.1562 37.7198C50.5559 37.6402 51.1528 37.4927 51.4824 37.3917C51.812 37.2907 52.3719 37.0676 52.7246 36.8947C53.0782 36.7217 53.5974 36.4282 53.8799 36.2433C54.1624 36.0584 54.8017 35.5015 55.3008 35.005L56.209 34.1027C56.3648 32.8424 56.4467 31.9944 56.4912 31.4054C56.5366 30.8172 56.5734 29.9116 56.5742 29.3937C56.5751 28.8757 56.5468 28.0761 56.5117 27.6163L56.4482 26.7814ZM27.7256 2.27161C27.42 2.28616 26.6298 2.35705 25.9707 2.42981C25.3115 2.50172 24.1936 2.67954 23.4873 2.82336C22.7811 2.96719 21.6839 3.25258 21.0479 3.45715C20.4118 3.66177 19.5155 3.98596 19.0566 4.17688C18.5977 4.36783 17.7696 4.74923 17.2168 5.02649C16.6638 5.30297 15.8453 5.74996 15.3975 6.01965C14.9497 6.29019 14.1984 6.78549 13.7275 7.12024C13.2566 7.45505 12.4277 8.10018 11.8867 8.55383C11.3457 9.00759 10.459 9.83798 9.91797 10.3995C9.3769 10.9603 8.59405 11.8424 8.17969 12.3595C7.76618 12.8758 7.14367 13.7225 6.79785 14.2404C6.45198 14.7583 5.93312 15.6063 5.64551 16.1241C5.35784 16.6422 4.91423 17.528 4.65918 18.0929C4.40495 18.6579 4.01909 19.6403 3.80078 20.2755C3.58334 20.9116 3.29288 21.8941 3.15332 22.4591C3.01463 23.0241 2.80369 24.0548 2.68555 24.7491C2.56675 25.4423 2.47005 26.0869 2.46973 26.1827C2.46973 26.3069 2.72101 26.1007 3.38965 25.4269C3.89561 24.9175 4.65727 24.2452 5.08105 23.9327C5.50473 23.6203 6.25516 23.1238 6.75 22.8292C7.24481 22.5347 8.09271 22.1066 8.63379 21.8781C9.17486 21.6495 9.98389 21.3535 10.4316 21.2208C10.8794 21.0881 11.6307 20.9006 12.1016 20.8038C12.5725 20.708 13.3333 20.5887 13.792 20.5382C14.2509 20.4886 15.1953 20.4474 15.8896 20.4474C16.5839 20.4474 17.4792 20.4887 17.8799 20.5392C18.2806 20.5897 19.1086 20.7582 19.7207 20.9132C20.3328 21.0682 21.2773 21.3761 21.8184 21.5978C22.3594 21.8186 23.1296 22.1782 23.5303 22.3956C23.9308 22.6139 24.7011 23.0897 25.2422 23.4552C25.7832 23.8199 26.6121 24.4446 27.083 24.8409C27.5539 25.2382 28.9995 26.5766 30.2939 27.8146C31.5893 29.0534 33.1486 30.5285 33.7607 31.0909C34.3729 31.6543 35.2691 32.4364 35.752 32.8302C36.2345 33.2238 36.6485 33.5458 36.6719 33.546C36.695 33.546 36.9555 33.3408 37.25 33.09C37.5447 32.8398 38.3055 32.229 38.9404 31.7335C39.5757 31.2378 40.4624 30.562 40.9102 30.2316C41.358 29.9019 42.224 29.3029 42.8359 28.9015C43.4479 28.5 44.4692 27.8925 45.1045 27.5509C45.7395 27.2094 46.5494 26.7977 46.9023 26.6349C47.2559 26.4731 47.8338 26.2232 48.1865 26.0802C48.54 25.9373 49.2137 25.6885 49.6846 25.5284C50.1554 25.3675 50.9067 25.1434 51.3545 25.0304C51.8022 24.9165 52.5337 24.7609 52.9814 24.6847C53.4293 24.6077 54.3151 24.5074 54.9502 24.462C55.5854 24.4158 56.1138 24.3707 56.124 24.3605C56.1329 24.3481 56.0468 23.9172 55.9307 23.4005C55.8151 22.8825 55.5628 21.9389 55.3711 21.3029C55.1793 20.6677 54.8478 19.7042 54.6338 19.1632C54.4189 18.6222 54.0168 17.7261 53.7402 17.173C53.4637 16.6199 52.9909 15.7522 52.6904 15.2462C52.3891 14.7403 51.9231 14.0174 51.6543 13.6407C51.3846 13.2641 50.8844 12.6094 50.542 12.1857C50.1995 11.7619 49.5581 11.0341 49.1172 10.5675C48.6763 10.1018 47.9298 9.38822 47.459 8.98157C46.9882 8.57497 46.2378 7.96649 45.79 7.63C45.3423 7.29355 44.5711 6.765 44.0771 6.45422C43.5832 6.14345 42.6577 5.62452 42.0225 5.3009C41.3872 4.97645 40.4816 4.55177 40.0107 4.35657C39.5399 4.16137 38.6343 3.83376 37.999 3.63C37.3638 3.42541 36.3228 3.14092 35.6875 2.99622C35.0523 2.85153 33.9922 2.6557 33.333 2.56067C32.6738 2.4665 31.518 2.3497 30.7646 2.3009C30.0113 2.2521 29.1435 2.2191 28.8379 2.22766C28.5323 2.23708 28.0311 2.25706 27.7256 2.27161Z" fill="#06302C"/>
<path d="M93.0261 9.16042V12.4411H82.0527V48.6989H78.0932V12.4411H67.0631V9.16042H93.0261ZM113.985 17.2491C116.323 17.2491 118.416 17.7393 120.264 18.7198C122.149 19.7002 123.62 21.2086 124.676 23.2449C125.769 25.2435 126.316 27.6946 126.316 30.5983V48.6989H122.413V31.0508C122.413 27.6946 121.565 25.1304 119.868 23.3581C118.208 21.5857 115.927 20.6995 113.023 20.6995C110.044 20.6995 107.669 21.6423 105.896 23.5277C104.124 25.4132 103.238 28.1849 103.238 31.8427V48.6989H99.2783V6.84128H103.238V23.0752C104.218 21.2275 105.651 19.7945 107.537 18.7763C109.46 17.7582 111.609 17.2491 113.985 17.2491ZM139.032 23.3015C139.9 21.3783 141.22 19.8888 142.992 18.8329C144.802 17.777 147.008 17.2491 149.61 17.2491V21.3783H148.535C145.669 21.3783 143.369 22.1513 141.634 23.6974C139.9 25.2435 139.032 27.8266 139.032 31.4467V48.6989H135.073V17.8148H139.032V23.3015ZM183.509 31.673C183.509 33.0305 183.471 34.0676 183.396 34.784H157.772C157.885 37.122 158.451 39.1206 159.469 40.7799C160.487 42.4391 161.826 43.7023 163.485 44.5697C165.145 45.3993 166.955 45.8141 168.916 45.8141C171.48 45.8141 173.629 45.1919 175.364 43.9475C177.136 42.703 178.305 41.025 178.871 38.9132H183.057C182.302 41.93 180.681 44.4 178.192 46.3232C175.741 48.2086 172.649 49.1514 168.916 49.1514C166.012 49.1514 163.41 48.5103 161.11 47.2282C158.809 45.9083 156.999 44.0606 155.679 41.6849C154.397 39.2715 153.756 36.4621 153.756 33.2568C153.756 30.0515 154.397 27.2421 155.679 24.8287C156.962 22.4153 158.753 20.5675 161.053 19.2854C163.353 18.0033 165.974 17.3622 168.916 17.3622C171.857 17.3622 174.421 18.0033 176.608 19.2854C178.833 20.5675 180.53 22.3022 181.699 24.4893C182.906 26.6388 183.509 29.0333 183.509 31.673ZM179.493 31.5599C179.531 29.2596 179.059 27.2987 178.079 25.6772C177.136 24.0557 175.835 22.8301 174.176 22.0005C172.517 21.1709 170.707 20.7561 168.746 20.7561C165.804 20.7561 163.297 21.6988 161.223 23.5843C159.149 25.4698 157.999 28.1283 157.772 31.5599H179.493ZM188.943 33.2002C188.943 30.0326 189.565 27.261 190.81 24.8853C192.092 22.4719 193.845 20.6241 196.07 19.342C198.333 18.0222 200.878 17.3622 203.707 17.3622C206.648 17.3622 209.174 18.041 211.286 19.3986C213.436 20.7561 214.982 22.4907 215.924 24.6025V17.8148H219.884V48.6989H215.924V41.8546C214.944 43.9663 213.379 45.7198 211.23 47.1151C209.118 48.4726 206.591 49.1514 203.65 49.1514C200.859 49.1514 198.333 48.4915 196.07 47.1716C193.845 45.8518 192.092 43.9852 190.81 41.5718C189.565 39.1583 188.943 36.3678 188.943 33.2002ZM215.924 33.2568C215.924 30.768 215.415 28.5808 214.397 26.6953C213.379 24.8099 211.984 23.3581 210.211 22.3399C208.477 21.3217 206.554 20.8127 204.442 20.8127C202.255 20.8127 200.294 21.3029 198.559 22.2833C196.825 23.2638 195.448 24.6967 194.43 26.5822C193.45 28.43 192.959 30.636 192.959 33.2002C192.959 35.7268 193.45 37.9516 194.43 39.8748C195.448 41.7603 196.825 43.2121 198.559 44.2303C200.294 45.2107 202.255 45.7009 204.442 45.7009C206.554 45.7009 208.477 45.1919 210.211 44.1737C211.984 43.1556 213.379 41.7037 214.397 39.8183C215.415 37.9328 215.924 35.7456 215.924 33.2568ZM227.113 33.2002C227.113 30.0326 227.754 27.261 229.036 24.8853C230.318 22.4719 232.072 20.6241 234.297 19.342C236.559 18.0222 239.105 17.3622 241.933 17.3622C244.648 17.3622 247.099 18.0222 249.286 19.342C251.473 20.6618 253.076 22.3776 254.094 24.4893V6.84128H258.054V48.6989H254.094V41.798C253.152 43.9475 251.605 45.7198 249.456 47.1151C247.307 48.4726 244.78 49.1514 241.876 49.1514C239.048 49.1514 236.503 48.4915 234.24 47.1716C232.015 45.8518 230.262 43.9852 228.98 41.5718C227.735 39.1583 227.113 36.3678 227.113 33.2002ZM254.094 33.2568C254.094 30.768 253.585 28.5808 252.567 26.6953C251.549 24.8099 250.154 23.3581 248.381 22.3399C246.647 21.3217 244.723 20.8127 242.612 20.8127C240.425 20.8127 238.464 21.3029 236.729 22.2833C234.994 23.2638 233.618 24.6967 232.6 26.5822C231.619 28.43 231.129 30.636 231.129 33.2002C231.129 35.7268 231.619 37.9516 232.6 39.8748C233.618 41.7603 234.994 43.2121 236.729 44.2303C238.464 45.2107 240.425 45.7009 242.612 45.7009C244.723 45.7009 246.647 45.1919 248.381 44.1737C250.154 43.1556 251.549 41.7037 252.567 39.8183C253.585 37.9328 254.094 35.7456 254.094 33.2568ZM271.052 6.84128V48.6989H267.093V6.84128H271.052ZM281.999 11.9886C281.207 11.9886 280.528 11.7058 279.962 11.1402C279.397 10.5745 279.114 9.8769 279.114 9.04729C279.114 8.21768 279.397 7.53891 279.962 7.01097C280.528 6.44533 281.207 6.16251 281.999 6.16251C282.79 6.16251 283.469 6.44533 284.035 7.01097C284.601 7.53891 284.883 8.21768 284.883 9.04729C284.883 9.8769 284.601 10.5745 284.035 11.1402C283.469 11.7058 282.79 11.9886 281.999 11.9886ZM283.978 17.8148V48.6989H280.019V17.8148H283.978ZM307.425 17.2491C311.121 17.2491 314.137 18.3992 316.475 20.6995C318.813 22.9621 319.982 26.2617 319.982 30.5983V48.6989H316.079V31.0508C316.079 27.6946 315.231 25.1304 313.534 23.3581C311.875 21.5857 309.593 20.6995 306.69 20.6995C303.711 20.6995 301.335 21.6423 299.563 23.5277C297.79 25.4132 296.904 28.1849 296.904 31.8427V48.6989H292.945V17.8148H296.904V23.0752C297.885 21.1898 299.299 19.7568 301.146 18.7763C302.994 17.7582 305.087 17.2491 307.425 17.2491ZM356.682 31.673C356.682 33.0305 356.644 34.0676 356.569 34.784H330.945C331.058 37.122 331.624 39.1206 332.642 40.7799C333.66 42.4391 334.999 43.7023 336.658 44.5697C338.317 45.3993 340.127 45.8141 342.088 45.8141C344.653 45.8141 346.802 45.1919 348.537 43.9475C350.309 42.703 351.478 41.025 352.044 38.9132H356.229C355.475 41.93 353.854 44.4 351.365 46.3232C348.914 48.2086 345.822 49.1514 342.088 49.1514C339.185 49.1514 336.583 48.5103 334.283 47.2282C331.982 45.9083 330.172 44.0606 328.852 41.6849C327.57 39.2715 326.929 36.4621 326.929 33.2568C326.929 30.0515 327.57 27.2421 328.852 24.8287C330.134 22.4153 331.926 20.5675 334.226 19.2854C336.526 18.0033 339.147 17.3622 342.088 17.3622C345.03 17.3622 347.594 18.0033 349.781 19.2854C352.006 20.5675 353.703 22.3022 354.872 24.4893C356.079 26.6388 356.682 29.0333 356.682 31.673ZM352.666 31.5599C352.704 29.2596 352.232 27.2987 351.252 25.6772C350.309 24.0557 349.008 22.8301 347.349 22.0005C345.69 21.1709 343.88 20.7561 341.919 20.7561C338.977 20.7561 336.47 21.6988 334.396 23.5843C332.322 25.4698 331.171 28.1283 330.945 31.5599H352.666Z" fill="#06302C"/>
</svg>
